{
  "accessors": [
    {
      "bufferView": 2,
      "componentType": 5126,
      "count": 42,
      "max": [
        177.5,
        159.5,
        6.0
      ],
      "min": [
        0.0,
        0.0,
        0.0
      ],
      "type": "VEC3"
    },
    {
      "bufferView": 2,
      "byteOffset": 504,
      "componentType": 5126,
      "count": 42,
      "max": [
        1.0,
        1.0,
        1.0
      ],
      "min": [
        -1.0,
        -1.0,
        -1.0
      ],
      "type": "VEC3"
    },
    {
      "bufferView": 3,
      "componentType": 5126,
      "count": 42,
      "max": [
        1.0,
        2.566875991760753e-07,
        1.0,
        1.0
      ],
      "min": [
        -2.100171627716918e-07,
        -1.0,
        -1.0,
        1.0
      ],
      "type": "VEC4"
    },
    {
      "bufferView": 1,
      "componentType": 5126,
      "count": 42,
      "max": [
        10.055740356445313,
        1.4247909784317017
      ],
      "min": [
        -0.7671951055526733,
        -9.726938247680664
      ],
      "type": "VEC2"
    },
    {
      "bufferView": 0,
      "componentType": 5125,
      "count": 72,
      "type": "SCALAR"
    },
    {
      "bufferView": 2,
      "byteOffset": 1008,
      "componentType": 5126,
      "count": 66,
      "max": [
        48.0,
        24.0,
        4.742499828338623
      ],
      "min": [
        0.0,
        0.0,
        0.0
      ],
      "type": "VEC3"
    },
    {
      "bufferView": 2,
      "byteOffset": 1800,
      "componentType": 5126,
      "count": 66,
      "max": [
        1.0,
        1.0,
        1.0
      ],
      "min": [
        -1.0,
        -1.0,
        -1.0
      ],
      "type": "VEC3"
    },
    {
      "bufferView": 0,
      "byteOffset": 288,
      "componentType": 5125,
      "count": 120,
      "type": "SCALAR"
    },
    {
      "bufferView": 2,
      "byteOffset": 2592,
      "componentType": 5126,
      "count": 51,
      "max": [
        97.5,
        24.0,
        4.742499828338623
      ],
      "min": [
        0.0,
        0.0,
        0.0
      ],
      "type": "VEC3"
    },
    {
      "bufferView": 2,
      "byteOffset": 3204,
      "componentType": 5126,
      "count": 51,
      "max": [
        0.0,
        1.0,
        1.0
      ],
      "min": [
        -1.0,
        -1.0,
        -1.0
      ],
      "type": "VEC3"
    },
    {
      "bufferView": 0,
      "byteOffset": 768,
      "componentType": 5125,
      "count": 87,
      "type": "SCALAR"
    },
    {
      "bufferView": 2,
      "byteOffset": 3816,
      "componentType": 5126,
      "count": 52,
      "max": [
        24.0,
        97.5,
        4.742499828338623
      ],
      "min": [
        0.0,
        0.0,
        0.0
      ],
      "type": "VEC3"
    },
    {
      "bufferView": 2,
      "byteOffset": 4440,
      "componentType": 5126,
      "count": 52,
      "max": [
        1.0,
        3.87063902522293e-15,
        1.0
      ],
      "min": [
        -1.0,
        -1.0,
        -1.0
      ],
      "type": "VEC3"
    },
    {
      "bufferView": 0,
      "byteOffset": 1116,
      "componentType": 5125,
      "count": 90,
      "type": "SCALAR"
    },
    {
      "bufferView": 2,
      "byteOffset": 5064,
      "componentType": 5126,
      "count": 68,
      "max": [
        24.0,
        24.0,
        4.742499828338623
      ],
      "min": [
        0.0,
        0.0,
        0.0
      ],
      "type": "VEC3"
    },
    {
      "bufferView": 2,
      "byteOffset": 5880,
      "componentType": 5126,
      "count": 68,
      "max": [
        1.0,
        1.0,
        1.0
      ],
      "min": [
        -1.0,
        -1.0,
        -1.0
      ],
      "type": "VEC3"
    },
    {
      "bufferView": 0,
      "byteOffset": 1476,
      "componentType": 5125,
      "count": 126,
      "type": "SCALAR"
    },
    {
      "bufferView": 2,
      "byteOffset": 6696,
      "componentType": 5126,
      "count": 24,
      "max": [
        48.0,
        0.75,
        4.0
      ],
      "min": [
        0.0,
        0.0,
        0.0
      ],
      "type": "VEC3"
    },
    {
      "bufferView": 2,
      "byteOffset": 6984,
      "componentType": 5126,
      "count": 24,
      "max": [
        1.0,
        1.0,
        1.0
      ],
      "min": [
        -1.0,
        -1.0,
        -1.0
      ],
      "type": "VEC3"
    },
    {
      "bufferView": 0,
      "byteOffset": 1980,
      "componentType": 5125,
      "count": 36,
      "type": "SCALAR"
    },
    {
      "bufferView": 2,
      "byteOffset": 7272,
      "componentType": 5126,
      "count": 24,
      "max": [
        48.0,
        0.75,
        4.0
      ],
      "min": [
        0.0,
        0.0,
        0.0
      ],
      "type": "VEC3"
    },
    {
      "bufferView": 2,
      "byteOffset": 7560,
      "componentType": 5126,
      "count": 24,
      "max": [
        1.0,
        1.0,
        1.0
      ],
      "min": [
        -1.0,
        -1.0,
        -1.0
      ],
      "type": "VEC3"
    },
    {
      "bufferView": 0,
      "byteOffset": 2124,
      "componentType": 5125,
      "count": 36,
      "type": "SCALAR"
    },
    {
      "bufferView": 2,
      "byteOffset": 7848,
      "componentType": 5126,
      "count": 24,
      "max": [
        24.0,
        0.75,
        4.0
      ],
      "min": [
        -5.25,
        0.0,
        0.0
      ],
      "type": "VEC3"
    },
    {
      "bufferView": 2,
      "byteOffset": 8136,
      "componentType": 5126,
      "count": 24,
      "max": [
        1.0,
        1.0,
        1.0
      ],
      "min": [
        -1.0,
        -1.0,
        -1.0
      ],
      "type": "VEC3"
    },
    {
      "bufferView": 0,
      "byteOffset": 2268,
      "componentType": 5125,
      "count": 36,
      "type": "SCALAR"
    },
    {
      "bufferView": 2,
      "byteOffset": 8424,
      "componentType": 5126,
      "count": 24,
      "max": [
        24.0,
        0.75,
        4.0
      ],
      "min": [
        0.0,
        0.0,
        0.0
      ],
      "type": "VEC3"
    },
    {
      "bufferView": 2,
      "byteOffset": 8712,
      "componentType": 5126,
      "count": 24,
      "max": [
        1.0,
        1.0,
        1.0
      ],
      "min": [
        -1.0,
        -1.0,
        -1.0
      ],
      "type": "VEC3"
    },
    {
      "bufferView": 0,
      "byteOffset": 2412,
      "componentType": 5125,
      "count": 36,
      "type": "SCALAR"
    },
    {
      "bufferView": 2,
      "byteOffset": 9000,
      "componentType": 5126,
      "count": 24,
      "max": [
        78.0,
        0.75,
        4.0
      ],
      "min": [
        0.0,
        0.0,
        0.0
      ],
      "type": "VEC3"
    },
    {
      "bufferView": 2,
      "byteOffset": 9288,
      "componentType": 5126,
      "count": 24,
      "max": [
        1.0,
        1.0,
        1.0
      ],
      "min": [
        -1.0,
        -1.0,
        -1.0
      ],
      "type": "VEC3"
    },
    {
      "bufferView": 0,
      "byteOffset": 2556,
      "componentType": 5125,
      "count": 36,
      "type": "SCALAR"
    },
    {
      "bufferView": 2,
      "byteOffset": 9576,
      "componentType": 5126,
      "count": 202,
      "max": [
        87.875,
        78.875,
        88.75
      ],
      "min": [
        -75.625,
        -66.625,
        8.75
      ],
      "type": "VEC3"
    },
    {
      "bufferView": 0,
      "byteOffset": 2700,
      "componentType": 5125,
      "count": 202,
      "type": "SCALAR"
    },
    {
      "bufferView": 2,
      "byteOffset": 12000,
      "componentType": 5126,
      "count": 9596,
      "max": [
        97.875,
        88.875,
        90.9375
      ],
      "min": [
        -78.875,
        -69.875,
        54.0
      ],
      "type": "VEC3"
    },
    {
      "bufferView": 2,
      "byteOffset": 127152,
      "componentType": 5126,
      "count": 9596,
      "max": [
        1.0,
        1.0,
        1.0
      ],
      "min": [
        -1.0,
        -1.0,
        -1.0
      ],
      "type": "VEC3"
    },
    {
      "bufferView": 0,
      "byteOffset": 3508,
      "componentType": 5125,
      "count": 22110,
      "type": "SCALAR"
    },
    {
      "bufferView": 2,
      "byteOffset": 242304,
      "componentType": 5126,
      "count": 4311,
      "max": [
        97.875,
        88.875,
        35.0
      ],
      "min": [
        -77.625,
        -68.625,
        0.0
      ],
      "type": "VEC3"
    },
    {
      "bufferView": 2,
      "byteOffset": 294036,
      "componentType": 5126,
      "count": 4311,
      "max": [
        1.0,
        1.0,
        1.0
      ],
      "min": [
        -1.0,
        -1.0,
        -1.0
      ],
      "type": "VEC3"
    },
    {
      "bufferView": 0,
      "byteOffset": 91948,
      "componentType": 5125,
      "count": 9207,
      "type": "SCALAR"
    }
  ],
  "asset": {
    "extras": {
      "author": "jimbogies (https://sketchfab.com/jimbogies)",
      "license": "CC-BY-4.0 (http://creativecommons.org/licenses/by/4.0/)",
      "source": "https://sketchfab.com/3d-models/basic-kitchen-cabinets-and-counter-d2918a9d978144f38012973b28eea9f6",
      "title": "Basic Kitchen Cabinets and Counter"
    },
    "generator": "Sketchfab-12.66.0",
    "version": "2.0"
  },
  "bufferViews": [
    {
      "buffer": 0,
      "byteLength": 128776,
      "name": "floatBufferViews",
      "target": 34963
    },
    {
      "buffer": 0,
      "byteLength": 336,
      "byteOffset": 128776,
      "byteStride": 8,
      "name": "floatBufferViews",
      "target": 34962
    },
    {
      "buffer": 0,
      "byteLength": 345768,
      "byteOffset": 129112,
      "byteStride": 12,
      "name": "floatBufferViews",
      "target": 34962
    },
    {
      "buffer": 0,
      "byteLength": 672,
      "byteOffset": 474880,
      "byteStride": 16,
      "name": "floatBufferViews",
      "target": 34962
    }
  ],
  "buffers": [
    {
      "byteLength": 475552,
      "uri": "scene.bin"
    }
  ],
  "images": [
    {
      "uri": "textures/PaintedPlaster04-basecolor_metallicRoughness.png"
    },
    {
      "uri": "textures/PaintedPlaster04-basecolor_normal.png"
    }
  ],
  "materials": [
    {
      "name": "0129_WhiteSmoke",
      "pbrMetallicRoughness": {
        "baseColorFactor": [
          0.472307320362618,
          0.472307320362618,
          0.472307320362618,
          1.0
        ],
        "metallicFactor": 0.0,
        "roughnessFactor": 0.42732217013540547
      }
    },
    {
      "name": "edge_color245245245255",
      "pbrMetallicRoughness": {
        "metallicFactor": 0.0,
        "roughnessFactor": 0.6
      }
    },
    {
      "name": "PaintedPlaster04-basecolor",
      "normalTexture": {
        "index": 1
      },
      "pbrMetallicRoughness": {
        "baseColorFactor": [
          0.7241664348743744,
          0.7169558423194726,
          0.7169558423194726,
          1.0
        ],
        "metallicFactor": 0.0,
        "metallicRoughnessTexture": {
          "index": 0
        }
      }
    },
    {
      "name": "Color_M03",
      "pbrMetallicRoughness": {
        "baseColorFactor": [
          0.022903998576993965,
          0.022903998576993965,
          0.022903998576993965,
          1.0
        ],
        "metallicFactor": 0.0,
        "roughnessFactor": 0.20843593625546455
      }
    },
    {
      "name": "Color_M08",
      "pbrMetallicRoughness": {
        "baseColorFactor": [
          0.08278013630699911,
          0.08278013630699911,
          0.08278013630699911,
          1.0
        ],
        "metallicFactor": 0.0,
        "roughnessFactor": 0.20235576309213288
      }
    }
  ],
  "meshes": [
    {
      "name": "Material2",
      "primitives": [
        {
          "attributes": {
            "NORMAL": 1,
            "POSITION": 0,
            "TANGENT": 2,
            "TEXCOORD_0": 3
          },
          "indices": 4,
          "material": 2,
          "mode": 4
        }
      ]
    },
    {
      "name": "Material2",
      "primitives": [
        {
          "attributes": {
            "NORMAL": 6,
            "POSITION": 5
          },
          "indices": 7,
          "material": 3,
          "mode": 4
        }
      ]
    },
    {
      "name": "Material2",
      "primitives": [
        {
          "attributes": {
            "NORMAL": 9,
            "POSITION": 8
          },
          "indices": 10,
          "material": 3,
          "mode": 4
        }
      ]
    },
    {
      "name": "Material2",
      "primitives": [
        {
          "attributes": {
            "NORMAL": 12,
            "POSITION": 11
          },
          "indices": 13,
          "material": 3,
          "mode": 4
        }
      ]
    },
    {
      "name": "Material2",
      "primitives": [
        {
          "attributes": {
            "NORMAL": 15,
            "POSITION": 14
          },
          "indices": 16,
          "material": 3,
          "mode": 4
        }
      ]
    },
    {
      "name": "Material2",
      "primitives": [
        {
          "attributes": {
            "NORMAL": 18,
            "POSITION": 17
          },
          "indices": 19,
          "material": 4,
          "mode": 4
        }
      ]
    },
    {
      "name": "Material2",
      "primitives": [
        {
          "attributes": {
            "NORMAL": 21,
            "POSITION": 20
          },
          "indices": 22,
          "material": 4,
          "mode": 4
        }
      ]
    },
    {
      "name": "Material2",
      "primitives": [
        {
          "attributes": {
            "NORMAL": 24,
            "POSITION": 23
          },
          "indices": 25,
          "material": 4,
          "mode": 4
        }
      ]
    },
    {
      "name": "Material2",
      "primitives": [
        {
          "attributes": {
            "NORMAL": 27,
            "POSITION": 26
          },
          "indices": 28,
          "material": 4,
          "mode": 4
        }
      ]
    },
    {
      "name": "Material2",
      "primitives": [
        {
          "attributes": {
            "NORMAL": 30,
            "POSITION": 29
          },
          "indices": 31,
          "material": 4,
          "mode": 4
        }
      ]
    },
    {
      "name": "Material2",
      "primitives": [
        {
          "attributes": {
            "POSITION": 32
          },
          "indices": 33,
          "material": 1,
          "mode": 1
        }
      ]
    },
    {
      "name": "Material2",
      "primitives": [
        {
          "attributes": {
            "NORMAL": 35,
            "POSITION": 34
          },
          "indices": 36,
          "material": 0,
          "mode": 4
        }
      ]
    },
    {
      "name": "Material2",
      "primitives": [
        {
          "attributes": {
            "NORMAL": 38,
            "POSITION": 37
          },
          "indices": 39,
          "material": 0,
          "mode": 4
        }
      ]
    }
  ],
  "nodes": [
    {
      "children": [
        1
      ],
      "matrix": [
        1.0,
        0.0,
        0.0,
        0.0,
        0.0,
        2.220446049250313e-16,
        -1.0,
        0.0,
        0.0,
        1.0,
        2.220446049250313e-16,
        0.0,
        0.0,
        0.0,
        0.0,
        1.0
      ],
      "name": "Sketchfab_model"
    },
    {
      "children": [
        2
      ],
      "name": "Collada visual scene group"
    },
    {
      "children": [
        30,
        31,
        32,
        3,
        5,
        7,
        9,
        11,
        13,
        15,
        18,
        21,
        24,
        27
      ],
      "name": "SketchUp"
    },
    {
      "children": [
        4
      ],
      "matrix": [
        0.6682121,
        -0.7439709,
        2.775558e-17,
        0.0,
        0.1094876,
        0.09833843,
        0.9891117,
        0.0,
        -0.7358703,
        -0.6609364,
        0.1471665,
        0.0,
        -148.4164,
        -105.2213,
        65.04597,
        1.0
      ],
      "name": "skp_camera_Last_Saved_SketchUp_View"
    },
    {
      "name": "ID1"
    },
    {
      "children": [
        6
      ],
      "matrix": [
        1.0,
        0.0,
        0.0,
        0.0,
        0.0,
        1.0,
        0.0,
        0.0,
        0.0,
        0.0,
        1.0,
        0.0,
        -79.625,
        -70.625,
        90.9375,
        1.0
      ],
      "name": "group_0"
    },
    {
      "mesh": 0,
      "name": "Material2"
    },
    {
      "children": [
        8
      ],
      "matrix": [
        1.0,
        0.0,
        0.0,
        0.0,
        0.0,
        1.0,
        0.0,
        0.0,
        0.0,
        0.0,
        1.0,
        0.0,
        -77.625,
        64.875,
        34.375,
        1.0
      ],
      "name": "group_1"
    },
    {
      "mesh": 1,
      "name": "Material2"
    },
    {
      "children": [
        10
      ],
      "matrix": [
        1.0,
        0.0,
        0.0,
        0.0,
        0.0,
        1.0,
        0.0,
        0.0,
        0.0,
        0.0,
        1.0,
        0.0,
        0.375,
        64.875,
        34.375,
        1.0
      ],
      "name": "group_2"
    },
    {
      "mesh": 2,
      "name": "Material2"
    },
    {
      "children": [
        12
      ],
      "matrix": [
        1.0,
        0.0,
        0.0,
        0.0,
        0.0,
        1.0,
        0.0,
        0.0,
        0.0,
        0.0,
        1.0,
        0.0,
        73.875,
        -8.625,
        34.375,
        1.0
      ],
      "name": "group_3"
    },
    {
      "mesh": 3,
      "name": "Material2"
    },
    {
      "children": [
        14
      ],
      "matrix": [
        1.0,
        0.0,
        0.0,
        0.0,
        0.0,
        1.0,
        0.0,
        0.0,
        0.0,
        0.0,
        1.0,
        0.0,
        73.875,
        -68.625,
        34.375,
        1.0
      ],
      "name": "group_4"
    },
    {
      "mesh": 4,
      "name": "Material2"
    },
    {
      "children": [
        16
      ],
      "matrix": [
        1.94289e-16,
        -1.0,
        0.0,
        0.0,
        1.0,
        1.94289e-16,
        0.0,
        0.0,
        0.0,
        0.0,
        1.0,
        0.0,
        77.625,
        39.375,
        0.0,
        1.0
      ],
      "name": "instance_0"
    },
    {
      "children": [
        17
      ],
      "name": "Component_13"
    },
    {
      "mesh": 5,
      "name": "Material2"
    },
    {
      "children": [
        19
      ],
      "matrix": [
        1.0,
        0.0,
        0.0,
        0.0,
        0.0,
        1.0,
        0.0,
        0.0,
        0.0,
        0.0,
        1.0,
        0.0,
        -77.625,
        68.625,
        0.0,
        1.0
      ],
      "name": "instance_1"
    },
    {
      "children": [
        20
      ],
      "name": "Component_13"
    },
    {
      "mesh": 6,
      "name": "Material2"
    },
    {
      "children": [
        22
      ],
      "matrix": [
        -5.551115e-17,
        -1.0,
        0.0,
        0.0,
        1.0,
        -5.551115e-17,
        0.0,
        0.0,
        0.0,
        0.0,
        1.0,
        0.0,
        77.625,
        63.375,
        0.0,
        1.0
      ],
      "name": "instance_2"
    },
    {
      "children": [
        23
      ],
      "name": "Component_16"
    },
    {
      "mesh": 7,
      "name": "Material2"
    },
    {
      "children": [
        25
      ],
      "matrix": [
        -5.551115e-17,
        -1.0,
        0.0,
        0.0,
        1.0,
        -5.551115e-17,
        0.0,
        0.0,
        0.0,
        0.0,
        1.0,
        0.0,
        77.625,
        -44.625,
        0.0,
        1.0
      ],
      "name": "instance_3"
    },
    {
      "children": [
        26
      ],
      "name": "Component_15"
    },
    {
      "mesh": 8,
      "name": "Material2"
    },
    {
      "children": [
        28
      ],
      "matrix": [
        1.0,
        0.0,
        0.0,
        0.0,
        0.0,
        1.0,
        0.0,
        0.0,
        0.0,
        0.0,
        1.0,
        0.0,
        0.375,
        68.625,
        0.0,
        1.0
      ],
      "name": "instance_4"
    },
    {
      "children": [
        29
      ],
      "name": "Component_14"
    },
    {
      "mesh": 9,
      "name": "Material2"
    },
    {
      "mesh": 10,
      "name": "Material2"
    },
    {
      "mesh": 11,
      "name": "Material2"
    },
    {
      "mesh": 12,
      "name": "Material2"
    }
  ],
  "samplers": [
    {
      "magFilter": 9729,
      "minFilter": 9987,
      "wrapS": 10497,
      "wrapT": 10497
    }
  ],
  "scene": 0,
  "scenes": [
    {
      "name": "Sketchfab_Scene",
      "nodes": [
        0
      ]
    }
  ],
  "textures": [
    {
      "sampler": 0,
      "source": 0
    },
    {
      "sampler": 0,
      "source": 1
    }
  ]
}
