{
  "accessors": [
    {
      "bufferView": 2,
      "componentType": 5126,
      "count": 5921,
      "max": [
        1.0,
        1.0000079870224,
        1.023751974105835
      ],
      "min": [
        -1.503937005996704,
        -1.0,
        -1.0
      ],
      "type": "VEC3"
    },
    {
      "bufferView": 2,
      "byteOffset": 71052,
      "componentType": 5126,
      "count": 5921,
      "max": [
        0.9999153017997742,
        1.0,
        1.0
      ],
      "min": [
        -1.0,
        -1.0,
        -1.0
      ],
      "type": "VEC3"
    },
    {
      "bufferView": 3,
      "componentType": 5126,
      "count": 5921,
      "max": [
        1.0,
        0.9999998807907104,
        0.9989998936653137,
        1.0
      ],
      "min": [
        -1.0,
        -1.0,
        -1.0,
        -1.0
      ],
      "type": "VEC4"
    },
    {
      "bufferView": 1,
      "componentType": 5126,
      "count": 5921,
      "max": [
        0.9708995223045349,
        0.9779763221740723
      ],
      "min": [
        0.021125610917806625,
        0.01057558972388506
      ],
      "type": "VEC2"
    },
    {
      "bufferView": 0,
      "componentType": 5125,
      "count": 6288,
      "type": "SCALAR"
    }
  ],
  "asset": {
    "extras": {
      "author": "Glowbox 3D (https://sketchfab.com/ra3id)",
      "license": "CC-BY-4.0 (http://creativecommons.org/licenses/by/4.0/)",
      "source": "https://sketchfab.com/3d-models/refrigerator-grey-polished-metal-2071bda681b642218b6829b82e4fd93b",
      "title": "Refrigerator - Grey Polished Metal"
    },
    "generator": "Sketchfab-12.67.0",
    "version": "2.0"
  },
  "bufferViews": [
    {
      "buffer": 0,
      "byteLength": 25152,
      "name": "floatBufferViews",
      "target": 34963
    },
    {
      "buffer": 0,
      "byteLength": 47368,
      "byteOffset": 25152,
      "byteStride": 8,
      "name": "floatBufferViews",
      "target": 34962
    },
    {
      "buffer": 0,
      "byteLength": 142104,
      "byteOffset": 72520,
      "byteStride": 12,
      "name": "floatBufferViews",
      "target": 34962
    },
    {
      "buffer": 0,
      "byteLength": 94736,
      "byteOffset": 214624,
      "byteStride": 16,
      "name": "floatBufferViews",
      "target": 34962
    }
  ],
  "buffers": [
    {
      "byteLength": 309360,
      "uri": "scene.bin"
    }
  ],
  "images": [
    {
      "uri": "textures/Material_baseColor.png"
    },
    {
      "uri": "textures/Material_metallicRoughness.png"
    },
    {
      "uri": "textures/Material_normal.png"
    }
  ],
  "materials": [
    {
      "doubleSided": true,
      "name": "Material",
      "normalTexture": {
        "index": 2
      },
      "pbrMetallicRoughness": {
        "baseColorTexture": {
          "index": 0
        },
        "metallicRoughnessTexture": {
          "index": 1
        }
      }
    }
  ],
  "meshes": [
    {
      "name": "Material-material",
      "primitives": [
        {
          "attributes": {
            "NORMAL": 1,
            "POSITION": 0,
            "TANGENT": 2,
            "TEXCOORD_0": 3
          },
          "indices": 4,
          "material": 0,
          "mode": 4
        }
      ]
    }
  ],
  "nodes": [
    {
      "children": [
        1
      ],
      "matrix": [
        1.0,
        0.0,
        0.0,
        0.0,
        0.0,
        2.220446049250313e-16,
        -1.0,
        0.0,
        0.0,
        1.0,
        2.220446049250313e-16,
        0.0,
        0.0,
        0.0,
        0.0,
        1.0
      ],
      "name": "Sketchfab_model"
    },
    {
      "children": [
        2,
        4,
        6
      ],
      "name": "Collada visual scene group"
    },
    {
      "children": [
        3
      ],
      "matrix": [
        0.000569845,
        1.364358,
        9.7869e-13,
        0.0,
        -1.977748,
        0.000826037,
        -2.77052e-10,
        0.0,
        -5.50464e-10,
        -2.58883e-12,
        3.929506,
        0.0,
        0.002426386,
        0.2546521,
        3.935812,
        1.0
      ],
      "name": "Cube"
    },
    {
      "mesh": 0,
      "name": "Material-material"
    },
    {
      "children": [
        5
      ],
      "matrix": [
        -0.2908646,
        0.9551712,
        -0.05518906,
        0.0,
        -0.7711008,
        -0.1998834,
        0.6045247,
        0.0,
        0.5663932,
        0.2183912,
        0.7946723,
        0.0,
        4.076245,
        1.005454,
        5.903862,
        1.0
      ],
      "name": "Lamp"
    },
    {
      "name": "Lamp"
    },
    {
      "children": [
        7
      ],
      "matrix": [
        0.6859207,
        0.7276763,
        0.0,
        0.0,
        -0.3240135,
        0.3054208,
        0.8953956,
        0.0,
        0.6515582,
        -0.6141704,
        0.4452714,
        0.0,
        7.481132,
        -6.50764,
        5.343665,
        1.0
      ],
      "name": "Camera"
    },
    {
      "name": "Camera-camera"
    }
  ],
  "samplers": [
    {
      "magFilter": 9729,
      "minFilter": 9987,
      "wrapS": 10497,
      "wrapT": 10497
    }
  ],
  "scene": 0,
  "scenes": [
    {
      "name": "Sketchfab_Scene",
      "nodes": [
        0
      ]
    }
  ],
  "textures": [
    {
      "sampler": 0,
      "source": 0
    },
    {
      "sampler": 0,
      "source": 1
    },
    {
      "sampler": 0,
      "source": 2
    }
  ]
}
